<svg xmlns="http://www.w3.org/2000/svg" xmlns:xlink="http://www.w3.org/1999/xlink" width="160" zoomAndPan="magnify" viewBox="0 0 120 36.000001" height="48" preserveAspectRatio="xMidYMid meet" version="1.0"><defs><g/><clipPath id="640de0dfa8"><path d="M 1.621094 0 L 36.648438 0 L 36.648438 35.027344 L 1.621094 35.027344 Z M 1.621094 0 " clip-rule="nonzero"/></clipPath><clipPath id="621fc6b32a"><path d="M 114 14 L 118.378906 14 L 118.378906 22 L 114 22 Z M 114 14 " clip-rule="nonzero"/></clipPath></defs><g clip-path="url(#640de0dfa8)"><path fill="#90dfaa" d="M 36.648438 17.511719 C 36.648438 18.085938 36.621094 18.660156 36.5625 19.230469 C 36.507812 19.800781 36.425781 20.367188 36.3125 20.929688 C 36.199219 21.492188 36.0625 22.046875 35.894531 22.597656 C 35.726562 23.144531 35.535156 23.6875 35.316406 24.214844 C 35.097656 24.746094 34.851562 25.261719 34.582031 25.769531 C 34.308594 26.273438 34.015625 26.765625 33.695312 27.242188 C 33.378906 27.71875 33.039062 28.179688 32.671875 28.625 C 32.308594 29.066406 31.925781 29.492188 31.519531 29.898438 C 31.113281 30.304688 30.6875 30.6875 30.246094 31.050781 C 29.800781 31.414062 29.34375 31.757812 28.863281 32.074219 C 28.386719 32.394531 27.898438 32.6875 27.390625 32.960938 C 26.886719 33.230469 26.367188 33.472656 25.835938 33.695312 C 25.308594 33.914062 24.769531 34.105469 24.21875 34.273438 C 23.671875 34.4375 23.113281 34.578125 22.550781 34.691406 C 21.988281 34.800781 21.421875 34.886719 20.851562 34.941406 C 20.28125 35 19.707031 35.027344 19.136719 35.027344 C 18.5625 35.027344 17.988281 35 17.417969 34.941406 C 16.847656 34.886719 16.28125 34.800781 15.71875 34.691406 C 15.15625 34.578125 14.601562 34.4375 14.050781 34.273438 C 13.503906 34.105469 12.964844 33.914062 12.433594 33.695312 C 11.902344 33.472656 11.386719 33.230469 10.878906 32.960938 C 10.375 32.6875 9.882812 32.394531 9.40625 32.074219 C 8.929688 31.757812 8.46875 31.414062 8.023438 31.050781 C 7.582031 30.6875 7.15625 30.304688 6.75 29.898438 C 6.34375 29.492188 5.960938 29.066406 5.597656 28.625 C 5.234375 28.179688 4.890625 27.71875 4.574219 27.242188 C 4.253906 26.765625 3.960938 26.273438 3.691406 25.769531 C 3.417969 25.261719 3.175781 24.746094 2.953125 24.214844 C 2.734375 23.6875 2.542969 23.144531 2.375 22.597656 C 2.210938 22.046875 2.070312 21.492188 1.957031 20.929688 C 1.847656 20.367188 1.761719 19.800781 1.707031 19.230469 C 1.648438 18.660156 1.621094 18.085938 1.621094 17.511719 C 1.621094 16.941406 1.648438 16.367188 1.707031 15.796875 C 1.761719 15.226562 1.847656 14.660156 1.957031 14.097656 C 2.070312 13.535156 2.210938 12.976562 2.375 12.429688 C 2.542969 11.878906 2.734375 11.339844 2.953125 10.8125 C 3.175781 10.28125 3.417969 9.761719 3.691406 9.257812 C 3.960938 8.75 4.253906 8.261719 4.574219 7.785156 C 4.890625 7.304688 5.234375 6.847656 5.597656 6.402344 C 5.960938 5.960938 6.34375 5.535156 6.75 5.128906 C 7.15625 4.722656 7.582031 4.339844 8.023438 3.976562 C 8.46875 3.613281 8.929688 3.269531 9.40625 2.953125 C 9.882812 2.632812 10.375 2.339844 10.878906 2.066406 C 11.386719 1.796875 11.902344 1.550781 12.433594 1.332031 C 12.964844 1.113281 13.503906 0.921875 14.050781 0.753906 C 14.601562 0.585938 15.15625 0.449219 15.71875 0.335938 C 16.28125 0.226562 16.847656 0.140625 17.417969 0.0859375 C 17.988281 0.0273438 18.5625 0 19.136719 0 C 19.707031 0 20.28125 0.0273438 20.851562 0.0859375 C 21.421875 0.140625 21.988281 0.226562 22.550781 0.335938 C 23.113281 0.449219 23.671875 0.585938 24.21875 0.753906 C 24.769531 0.921875 25.308594 1.113281 25.835938 1.332031 C 26.367188 1.550781 26.886719 1.796875 27.390625 2.066406 C 27.898438 2.339844 28.386719 2.632812 28.863281 2.953125 C 29.34375 3.269531 29.800781 3.613281 30.246094 3.976562 C 30.6875 4.339844 31.113281 4.722656 31.519531 5.128906 C 31.925781 5.535156 32.308594 5.960938 32.671875 6.402344 C 33.039062 6.847656 33.378906 7.304688 33.695312 7.785156 C 34.015625 8.261719 34.308594 8.75 34.582031 9.257812 C 34.851562 9.761719 35.097656 10.28125 35.316406 10.8125 C 35.535156 11.339844 35.726562 11.878906 35.894531 12.429688 C 36.0625 12.976562 36.199219 13.535156 36.3125 14.097656 C 36.425781 14.660156 36.507812 15.226562 36.5625 15.796875 C 36.621094 16.367188 36.648438 16.941406 36.648438 17.511719 Z M 36.648438 17.511719 " fill-opacity="1" fill-rule="nonzero"/></g><path fill="#e6e9ee" d="M 19.726562 27.464844 L 19.726562 34.984375 C 19.515625 34.992188 19.308594 35 19.101562 35 C 18.890625 35 18.683594 35 18.476562 34.984375 L 18.476562 27.464844 Z M 19.726562 27.464844 " fill-opacity="1" fill-rule="nonzero"/><path fill="#324a5e" d="M 21.179688 24.242188 L 17.089844 24.242188 C 14.425781 24.242188 12.269531 22.085938 12.269531 19.421875 L 12.269531 10.09375 C 12.269531 7.429688 14.425781 5.269531 17.089844 5.269531 L 21.179688 5.269531 C 23.84375 5.269531 26 7.429688 26 10.09375 L 26 19.421875 C 26 22.085938 23.84375 24.242188 21.179688 24.242188 Z M 21.179688 24.242188 " fill-opacity="1" fill-rule="nonzero"/><path fill="#2b3b4e" d="M 23.03125 5.640625 L 23.03125 8.175781 C 23.03125 8.664062 22.644531 9.050781 22.160156 9.050781 C 21.671875 9.050781 21.285156 8.664062 21.285156 8.175781 L 21.285156 5.269531 C 21.910156 5.285156 22.492188 5.417969 23.03125 5.640625 Z M 23.03125 5.640625 " fill-opacity="1" fill-rule="nonzero"/><path fill="#2b3b4e" d="M 20.007812 5.269531 L 20.007812 8.183594 C 20.007812 8.671875 19.621094 9.058594 19.136719 9.058594 C 18.648438 9.058594 18.261719 8.671875 18.261719 8.183594 L 18.261719 5.269531 C 18.261719 5.269531 20.007812 5.269531 20.007812 5.269531 Z M 20.007812 5.269531 " fill-opacity="1" fill-rule="nonzero"/><path fill="#2b3b4e" d="M 16.984375 5.269531 L 16.984375 8.175781 C 16.984375 8.664062 16.597656 9.050781 16.109375 9.050781 C 15.632812 9.050781 15.238281 8.664062 15.238281 8.175781 L 15.238281 5.640625 C 15.777344 5.417969 16.367188 5.285156 16.984375 5.269531 Z M 16.984375 5.269531 " fill-opacity="1" fill-rule="nonzero"/><path fill="#2b3b4e" d="M 26 16.492188 L 26 18.234375 L 20.882812 18.234375 C 20.40625 18.234375 20.007812 17.847656 20.007812 17.359375 C 20.007812 16.882812 20.398438 16.488281 20.882812 16.488281 L 26 16.488281 Z M 26 16.492188 " fill-opacity="1" fill-rule="nonzero"/><path fill="#2b3b4e" d="M 26 13.46875 L 26 15.21875 L 20.882812 15.21875 C 20.40625 15.21875 20.007812 14.828125 20.007812 14.34375 C 20.007812 13.859375 20.398438 13.46875 20.882812 13.46875 Z M 26 13.46875 " fill-opacity="1" fill-rule="nonzero"/><path fill="#2b3b4e" d="M 26 10.445312 L 26 12.195312 L 20.882812 12.195312 C 20.40625 12.195312 20.007812 11.804688 20.007812 11.320312 C 20.007812 10.839844 20.398438 10.445312 20.882812 10.445312 Z M 26 10.445312 " fill-opacity="1" fill-rule="nonzero"/><path fill="#2b3b4e" d="M 18.261719 17.367188 C 18.261719 17.605469 18.164062 17.824219 18.003906 17.984375 C 17.84375 18.144531 17.628906 18.242188 17.386719 18.242188 L 12.269531 18.242188 L 12.269531 16.5 L 17.386719 16.5 C 17.871094 16.492188 18.261719 16.890625 18.261719 17.367188 Z M 18.261719 17.367188 " fill-opacity="1" fill-rule="nonzero"/><path fill="#2b3b4e" d="M 18.261719 14.34375 C 18.261719 14.578125 18.164062 14.800781 18.003906 14.960938 C 17.84375 15.121094 17.628906 15.21875 17.386719 15.21875 L 12.269531 15.21875 L 12.269531 13.46875 L 17.386719 13.46875 C 17.871094 13.46875 18.261719 13.859375 18.261719 14.34375 Z M 18.261719 14.34375 " fill-opacity="1" fill-rule="nonzero"/><path fill="#2b3b4e" d="M 18.261719 11.3125 C 18.261719 11.554688 18.164062 11.769531 18.003906 11.929688 C 17.84375 12.089844 17.628906 12.1875 17.386719 12.1875 L 12.269531 12.1875 L 12.269531 10.4375 L 17.386719 10.4375 C 17.871094 10.445312 18.261719 10.835938 18.261719 11.3125 Z M 18.261719 11.3125 " fill-opacity="1" fill-rule="nonzero"/><path fill="#ffffff" d="M 27.429688 14.238281 L 27.429688 19.613281 C 27.429688 23.132812 24.566406 25.996094 21.050781 25.996094 L 17.214844 25.996094 C 13.699219 25.996094 10.832031 23.132812 10.832031 19.613281 L 10.832031 14.238281 L 9.585938 14.238281 L 9.585938 19.613281 C 9.585938 23.820312 13.003906 27.246094 17.214844 27.246094 L 21.050781 27.246094 C 25.253906 27.246094 28.679688 23.824219 28.679688 19.613281 L 28.679688 14.238281 Z M 27.429688 14.238281 " fill-opacity="1" fill-rule="nonzero"/><path fill="#acb3ba" d="M 20.964844 25.179688 L 17.296875 25.179688 C 17.125 25.179688 16.976562 25.324219 16.976562 25.496094 L 16.976562 29.5 C 16.976562 29.671875 17.125 29.816406 17.296875 29.816406 L 20.964844 29.816406 C 21.140625 29.816406 21.285156 29.671875 21.285156 29.5 L 21.285156 25.496094 C 21.285156 25.324219 21.148438 25.179688 20.964844 25.179688 Z M 20.964844 25.179688 " fill-opacity="1" fill-rule="nonzero"/><g fill="#ffffff" fill-opacity="1"><g transform="translate(37.5797, 21.794599)"><g><path d="M 0.25 0 L 0.25 -0.109375 L 0.5 -0.203125 C 0.75 -0.304688 0.875 -0.507812 0.875 -0.8125 L 0.875 -6.890625 C 0.875 -7.203125 0.75 -7.40625 0.5 -7.5 L 0.25 -7.59375 L 0.25 -7.703125 L 3.34375 -7.703125 C 4.164062 -7.703125 4.875 -7.546875 5.46875 -7.234375 C 6.0625 -6.929688 6.519531 -6.492188 6.84375 -5.921875 C 7.164062 -5.347656 7.328125 -4.660156 7.328125 -3.859375 C 7.328125 -3.046875 7.148438 -2.347656 6.796875 -1.765625 C 6.453125 -1.191406 5.96875 -0.753906 5.34375 -0.453125 C 4.71875 -0.148438 3.976562 0 3.125 0 Z M 2.625 -0.234375 L 3.125 -0.234375 C 3.6875 -0.234375 4.140625 -0.34375 4.484375 -0.5625 C 4.828125 -0.789062 5.078125 -1.164062 5.234375 -1.6875 C 5.390625 -2.207031 5.46875 -2.929688 5.46875 -3.859375 C 5.46875 -4.773438 5.390625 -5.492188 5.234375 -6.015625 C 5.078125 -6.535156 4.828125 -6.90625 4.484375 -7.125 C 4.148438 -7.351562 3.710938 -7.46875 3.171875 -7.46875 L 2.625 -7.46875 Z M 2.625 -0.234375 "/></g></g></g><g fill="#ffffff" fill-opacity="1"><g transform="translate(45.138109, 21.794599)"><g><path d="M 1.9375 0.171875 C 1.488281 0.171875 1.109375 0.046875 0.796875 -0.203125 C 0.492188 -0.460938 0.34375 -0.832031 0.34375 -1.3125 C 0.34375 -1.6875 0.523438 -2.023438 0.890625 -2.328125 C 1.265625 -2.640625 1.851562 -2.867188 2.65625 -3.015625 C 2.78125 -3.046875 2.921875 -3.070312 3.078125 -3.09375 C 3.234375 -3.125 3.398438 -3.15625 3.578125 -3.1875 L 3.578125 -4.109375 C 3.578125 -4.640625 3.507812 -5.007812 3.375 -5.21875 C 3.25 -5.4375 3.050781 -5.546875 2.78125 -5.546875 C 2.59375 -5.546875 2.441406 -5.484375 2.328125 -5.359375 C 2.222656 -5.242188 2.15625 -5.035156 2.125 -4.734375 L 2.09375 -4.609375 C 2.082031 -4.273438 2.003906 -4.03125 1.859375 -3.875 C 1.710938 -3.71875 1.53125 -3.640625 1.3125 -3.640625 C 1.101562 -3.640625 0.929688 -3.703125 0.796875 -3.828125 C 0.671875 -3.953125 0.609375 -4.117188 0.609375 -4.328125 C 0.609375 -4.648438 0.71875 -4.921875 0.9375 -5.140625 C 1.15625 -5.359375 1.445312 -5.519531 1.8125 -5.625 C 2.1875 -5.738281 2.585938 -5.796875 3.015625 -5.796875 C 3.703125 -5.796875 4.234375 -5.625 4.609375 -5.28125 C 4.992188 -4.945312 5.1875 -4.394531 5.1875 -3.625 L 5.1875 -1.046875 C 5.1875 -0.703125 5.347656 -0.53125 5.671875 -0.53125 L 5.921875 -0.53125 L 6.03125 -0.4375 C 5.882812 -0.25 5.722656 -0.101562 5.546875 0 C 5.367188 0.101562 5.125 0.15625 4.8125 0.15625 C 4.46875 0.15625 4.195312 0.078125 4 -0.078125 C 3.800781 -0.242188 3.671875 -0.457031 3.609375 -0.71875 C 3.367188 -0.46875 3.125 -0.253906 2.875 -0.078125 C 2.632812 0.0859375 2.320312 0.171875 1.9375 0.171875 Z M 2.65625 -0.53125 C 2.8125 -0.53125 2.957031 -0.566406 3.09375 -0.640625 C 3.226562 -0.722656 3.390625 -0.835938 3.578125 -0.984375 L 3.578125 -2.953125 C 3.492188 -2.929688 3.410156 -2.914062 3.328125 -2.90625 C 3.253906 -2.894531 3.164062 -2.878906 3.0625 -2.859375 C 2.707031 -2.765625 2.421875 -2.601562 2.203125 -2.375 C 1.992188 -2.15625 1.890625 -1.863281 1.890625 -1.5 C 1.890625 -1.175781 1.960938 -0.929688 2.109375 -0.765625 C 2.253906 -0.609375 2.4375 -0.53125 2.65625 -0.53125 Z M 2.65625 -0.53125 "/></g></g></g><g fill="#ffffff" fill-opacity="1"><g transform="translate(51.18017, 21.794599)"><g><path d="M 2.84375 0.03125 L 0.78125 -4.921875 C 0.675781 -5.191406 0.488281 -5.367188 0.21875 -5.453125 L 0.0625 -5.5 L 0.0625 -5.609375 L 3.078125 -5.609375 L 3.078125 -5.5 L 2.875 -5.453125 C 2.570312 -5.367188 2.476562 -5.164062 2.59375 -4.84375 L 3.8125 -1.59375 L 4.953125 -4.828125 C 5.015625 -4.972656 5.03125 -5.097656 5 -5.203125 C 4.96875 -5.304688 4.878906 -5.378906 4.734375 -5.421875 L 4.4375 -5.5 L 4.4375 -5.609375 L 6.125 -5.609375 L 6.125 -5.5 L 5.796875 -5.421875 C 5.640625 -5.378906 5.519531 -5.316406 5.4375 -5.234375 C 5.363281 -5.160156 5.296875 -5.046875 5.234375 -4.890625 L 3.53125 0.03125 Z M 2.84375 0.03125 "/></g></g></g><g fill="#ffffff" fill-opacity="1"><g transform="translate(57.362206, 21.794599)"><g><path d="M 1.640625 -6.390625 C 1.367188 -6.390625 1.140625 -6.472656 0.953125 -6.640625 C 0.773438 -6.804688 0.6875 -7.019531 0.6875 -7.28125 C 0.6875 -7.550781 0.773438 -7.765625 0.953125 -7.921875 C 1.140625 -8.085938 1.367188 -8.171875 1.640625 -8.171875 C 1.898438 -8.171875 2.117188 -8.085938 2.296875 -7.921875 C 2.472656 -7.765625 2.5625 -7.550781 2.5625 -7.28125 C 2.5625 -7.019531 2.472656 -6.804688 2.296875 -6.640625 C 2.117188 -6.472656 1.898438 -6.390625 1.640625 -6.390625 Z M 0.25 0 L 0.25 -0.109375 L 0.421875 -0.15625 C 0.578125 -0.207031 0.679688 -0.28125 0.734375 -0.375 C 0.796875 -0.46875 0.828125 -0.59375 0.828125 -0.75 L 0.828125 -4.40625 C 0.828125 -4.5625 0.796875 -4.679688 0.734375 -4.765625 C 0.679688 -4.847656 0.578125 -4.90625 0.421875 -4.9375 L 0.25 -4.96875 L 0.25 -5.09375 L 2.390625 -5.78125 L 2.515625 -5.65625 L 2.46875 -4 L 2.46875 -0.734375 C 2.46875 -0.578125 2.5 -0.453125 2.5625 -0.359375 C 2.625 -0.265625 2.726562 -0.195312 2.875 -0.15625 L 2.984375 -0.109375 L 2.984375 0 Z M 0.25 0 "/></g></g></g><g fill="#ffffff" fill-opacity="1"><g transform="translate(60.628185, 21.794599)"><g><path d="M 2.703125 0.171875 C 2.242188 0.171875 1.832031 0.0703125 1.46875 -0.125 C 1.101562 -0.332031 0.8125 -0.648438 0.59375 -1.078125 C 0.382812 -1.515625 0.28125 -2.070312 0.28125 -2.75 C 0.28125 -3.4375 0.398438 -4.003906 0.640625 -4.453125 C 0.878906 -4.898438 1.195312 -5.234375 1.59375 -5.453125 C 1.988281 -5.679688 2.421875 -5.796875 2.890625 -5.796875 C 3.160156 -5.796875 3.421875 -5.765625 3.671875 -5.703125 C 3.921875 -5.648438 4.144531 -5.570312 4.34375 -5.46875 L 4.34375 -6.984375 C 4.34375 -7.140625 4.316406 -7.253906 4.265625 -7.328125 C 4.210938 -7.410156 4.101562 -7.46875 3.9375 -7.5 L 3.71875 -7.546875 L 3.71875 -7.671875 L 5.84375 -8.1875 L 5.96875 -8.078125 L 5.921875 -6.4375 L 5.921875 -0.734375 C 5.921875 -0.578125 5.945312 -0.445312 6 -0.34375 C 6.0625 -0.25 6.164062 -0.1875 6.3125 -0.15625 L 6.421875 -0.109375 L 6.421875 0 L 4.421875 0.125 L 4.3125 -0.296875 C 4.101562 -0.148438 3.863281 -0.0351562 3.59375 0.046875 C 3.332031 0.128906 3.035156 0.171875 2.703125 0.171875 Z M 3.390625 -0.25 C 3.710938 -0.25 4.007812 -0.347656 4.28125 -0.546875 L 4.28125 -5.1875 C 4 -5.375 3.703125 -5.46875 3.390625 -5.46875 C 3.023438 -5.46875 2.707031 -5.25 2.4375 -4.8125 C 2.175781 -4.382812 2.046875 -3.707031 2.046875 -2.78125 C 2.046875 -1.851562 2.171875 -1.195312 2.421875 -0.8125 C 2.671875 -0.4375 2.992188 -0.25 3.390625 -0.25 Z M 3.390625 -0.25 "/></g></g></g><g fill="#ffffff" fill-opacity="1"><g transform="translate(67.323446, 21.794599)"><g><path d="M 1.25 -8.53125 C 1.53125 -8.53125 1.757812 -8.425781 1.9375 -8.21875 C 2.113281 -8.007812 2.203125 -7.738281 2.203125 -7.40625 C 2.203125 -6.96875 2.070312 -6.5625 1.8125 -6.1875 C 1.5625 -5.8125 1.242188 -5.53125 0.859375 -5.34375 L 0.78125 -5.484375 C 0.945312 -5.609375 1.09375 -5.765625 1.21875 -5.953125 C 1.34375 -6.148438 1.429688 -6.394531 1.484375 -6.6875 L 1.25 -6.75 C 0.96875 -6.8125 0.75 -6.925781 0.59375 -7.09375 C 0.445312 -7.257812 0.375 -7.457031 0.375 -7.6875 C 0.375 -7.9375 0.457031 -8.140625 0.625 -8.296875 C 0.789062 -8.453125 1 -8.53125 1.25 -8.53125 Z M 1.25 -8.53125 "/></g></g></g><g fill="#ffffff" fill-opacity="1"><g transform="translate(69.831258, 21.794599)"><g><path d="M 2.25 0.171875 C 1.875 0.171875 1.53125 0.125 1.21875 0.03125 C 0.914062 -0.0507812 0.640625 -0.160156 0.390625 -0.296875 L 0.390625 -1.6875 L 0.515625 -1.6875 L 0.90625 -0.984375 C 1.082031 -0.671875 1.269531 -0.4375 1.46875 -0.28125 C 1.675781 -0.132812 1.941406 -0.0625 2.265625 -0.0625 C 2.640625 -0.0625 2.941406 -0.144531 3.171875 -0.3125 C 3.398438 -0.476562 3.515625 -0.703125 3.515625 -0.984375 C 3.515625 -1.234375 3.429688 -1.441406 3.265625 -1.609375 C 3.097656 -1.773438 2.796875 -1.921875 2.359375 -2.046875 L 1.875 -2.203125 C 1.394531 -2.347656 1.019531 -2.566406 0.75 -2.859375 C 0.476562 -3.148438 0.34375 -3.507812 0.34375 -3.9375 C 0.34375 -4.457031 0.539062 -4.894531 0.9375 -5.25 C 1.34375 -5.613281 1.925781 -5.796875 2.6875 -5.796875 C 2.988281 -5.796875 3.269531 -5.757812 3.53125 -5.6875 C 3.800781 -5.625 4.0625 -5.523438 4.3125 -5.390625 L 4.25 -4.125 L 4.125 -4.125 L 3.71875 -4.859375 C 3.570312 -5.109375 3.425781 -5.285156 3.28125 -5.390625 C 3.132812 -5.503906 2.921875 -5.5625 2.640625 -5.5625 C 2.367188 -5.5625 2.117188 -5.484375 1.890625 -5.328125 C 1.660156 -5.179688 1.546875 -4.972656 1.546875 -4.703125 C 1.546875 -4.441406 1.644531 -4.234375 1.84375 -4.078125 C 2.039062 -3.921875 2.332031 -3.773438 2.71875 -3.640625 L 3.25 -3.484375 C 3.800781 -3.316406 4.195312 -3.082031 4.4375 -2.78125 C 4.6875 -2.476562 4.8125 -2.117188 4.8125 -1.703125 C 4.8125 -1.140625 4.585938 -0.6875 4.140625 -0.34375 C 3.691406 0 3.0625 0.171875 2.25 0.171875 Z M 2.25 0.171875 "/></g></g></g><g fill="#ffffff" fill-opacity="1"><g transform="translate(74.916851, 21.794599)"><g/></g></g><g fill="#ffffff" fill-opacity="1"><g transform="translate(77.459648, 21.794599)"><g><path d="M 0.25 0 L 0.25 -0.109375 L 0.484375 -0.203125 C 0.640625 -0.242188 0.742188 -0.3125 0.796875 -0.40625 C 0.847656 -0.5 0.875 -0.625 0.875 -0.78125 L 0.875 -6.890625 C 0.875 -7.046875 0.847656 -7.171875 0.796875 -7.265625 C 0.742188 -7.359375 0.640625 -7.4375 0.484375 -7.5 L 0.25 -7.59375 L 0.25 -7.703125 L 3.09375 -7.703125 C 4.25 -7.703125 5.085938 -7.488281 5.609375 -7.0625 C 6.128906 -6.644531 6.390625 -6.085938 6.390625 -5.390625 C 6.390625 -4.953125 6.28125 -4.546875 6.0625 -4.171875 C 5.851562 -3.804688 5.5 -3.515625 5 -3.296875 C 4.507812 -3.078125 3.847656 -2.96875 3.015625 -2.96875 L 2.625 -2.96875 L 2.625 -0.8125 C 2.625 -0.507812 2.773438 -0.3125 3.078125 -0.21875 L 3.4375 -0.109375 L 3.4375 0 Z M 2.625 -3.203125 L 3.0625 -3.203125 C 3.445312 -3.203125 3.757812 -3.265625 4 -3.390625 C 4.238281 -3.515625 4.414062 -3.726562 4.53125 -4.03125 C 4.65625 -4.34375 4.71875 -4.773438 4.71875 -5.328125 C 4.71875 -5.890625 4.648438 -6.328125 4.515625 -6.640625 C 4.390625 -6.953125 4.203125 -7.164062 3.953125 -7.28125 C 3.703125 -7.40625 3.390625 -7.46875 3.015625 -7.46875 L 2.625 -7.46875 Z M 2.625 -3.203125 "/></g></g></g><g fill="#ffffff" fill-opacity="1"><g transform="translate(84.04993, 21.794599)"><g><path d="M 3.1875 0.171875 C 2.59375 0.171875 2.078125 0.0507812 1.640625 -0.1875 C 1.203125 -0.4375 0.863281 -0.785156 0.625 -1.234375 C 0.394531 -1.691406 0.28125 -2.222656 0.28125 -2.828125 C 0.28125 -3.429688 0.40625 -3.953125 0.65625 -4.390625 C 0.90625 -4.835938 1.25 -5.179688 1.6875 -5.421875 C 2.132812 -5.671875 2.632812 -5.796875 3.1875 -5.796875 C 3.738281 -5.796875 4.234375 -5.675781 4.671875 -5.4375 C 5.109375 -5.195312 5.453125 -4.851562 5.703125 -4.40625 C 5.953125 -3.96875 6.078125 -3.441406 6.078125 -2.828125 C 6.078125 -2.210938 5.957031 -1.679688 5.71875 -1.234375 C 5.488281 -0.785156 5.15625 -0.4375 4.71875 -0.1875 C 4.289062 0.0507812 3.78125 0.171875 3.1875 0.171875 Z M 3.1875 -0.0625 C 3.457031 -0.0625 3.671875 -0.140625 3.828125 -0.296875 C 3.992188 -0.453125 4.113281 -0.726562 4.1875 -1.125 C 4.269531 -1.519531 4.3125 -2.078125 4.3125 -2.796875 C 4.3125 -3.523438 4.269531 -4.085938 4.1875 -4.484375 C 4.113281 -4.890625 3.992188 -5.171875 3.828125 -5.328125 C 3.671875 -5.484375 3.457031 -5.5625 3.1875 -5.5625 C 2.914062 -5.5625 2.695312 -5.484375 2.53125 -5.328125 C 2.363281 -5.171875 2.238281 -4.890625 2.15625 -4.484375 C 2.082031 -4.085938 2.046875 -3.523438 2.046875 -2.796875 C 2.046875 -2.078125 2.082031 -1.519531 2.15625 -1.125 C 2.238281 -0.726562 2.363281 -0.453125 2.53125 -0.296875 C 2.695312 -0.140625 2.914062 -0.0625 3.1875 -0.0625 Z M 3.1875 -0.0625 "/></g></g></g><g fill="#ffffff" fill-opacity="1"><g transform="translate(90.406928, 21.794599)"><g><path d="M 2.703125 0.171875 C 2.242188 0.171875 1.832031 0.0703125 1.46875 -0.125 C 1.101562 -0.332031 0.8125 -0.648438 0.59375 -1.078125 C 0.382812 -1.515625 0.28125 -2.070312 0.28125 -2.75 C 0.28125 -3.4375 0.398438 -4.003906 0.640625 -4.453125 C 0.878906 -4.898438 1.195312 -5.234375 1.59375 -5.453125 C 1.988281 -5.679688 2.421875 -5.796875 2.890625 -5.796875 C 3.160156 -5.796875 3.421875 -5.765625 3.671875 -5.703125 C 3.921875 -5.648438 4.144531 -5.570312 4.34375 -5.46875 L 4.34375 -6.984375 C 4.34375 -7.140625 4.316406 -7.253906 4.265625 -7.328125 C 4.210938 -7.410156 4.101562 -7.46875 3.9375 -7.5 L 3.71875 -7.546875 L 3.71875 -7.671875 L 5.84375 -8.1875 L 5.96875 -8.078125 L 5.921875 -6.4375 L 5.921875 -0.734375 C 5.921875 -0.578125 5.945312 -0.445312 6 -0.34375 C 6.0625 -0.25 6.164062 -0.1875 6.3125 -0.15625 L 6.421875 -0.109375 L 6.421875 0 L 4.421875 0.125 L 4.3125 -0.296875 C 4.101562 -0.148438 3.863281 -0.0351562 3.59375 0.046875 C 3.332031 0.128906 3.035156 0.171875 2.703125 0.171875 Z M 3.390625 -0.25 C 3.710938 -0.25 4.007812 -0.347656 4.28125 -0.546875 L 4.28125 -5.1875 C 4 -5.375 3.703125 -5.46875 3.390625 -5.46875 C 3.023438 -5.46875 2.707031 -5.25 2.4375 -4.8125 C 2.175781 -4.382812 2.046875 -3.707031 2.046875 -2.78125 C 2.046875 -1.851562 2.171875 -1.195312 2.421875 -0.8125 C 2.671875 -0.4375 2.992188 -0.25 3.390625 -0.25 Z M 3.390625 -0.25 "/></g></g></g><g fill="#ffffff" fill-opacity="1"><g transform="translate(97.102189, 21.794599)"><g><path d="M 3.125 0.171875 C 2.59375 0.171875 2.109375 0.0546875 1.671875 -0.171875 C 1.242188 -0.398438 0.90625 -0.734375 0.65625 -1.171875 C 0.40625 -1.609375 0.28125 -2.148438 0.28125 -2.796875 C 0.28125 -3.421875 0.414062 -3.957031 0.6875 -4.40625 C 0.96875 -4.851562 1.335938 -5.195312 1.796875 -5.4375 C 2.265625 -5.675781 2.773438 -5.796875 3.328125 -5.796875 C 3.773438 -5.796875 4.15625 -5.71875 4.46875 -5.5625 C 4.78125 -5.414062 5.015625 -5.222656 5.171875 -4.984375 C 5.335938 -4.753906 5.421875 -4.507812 5.421875 -4.25 C 5.421875 -4.03125 5.351562 -3.859375 5.21875 -3.734375 C 5.09375 -3.617188 4.925781 -3.5625 4.71875 -3.5625 C 4.488281 -3.5625 4.300781 -3.640625 4.15625 -3.796875 C 4.019531 -3.960938 3.941406 -4.179688 3.921875 -4.453125 C 3.910156 -4.617188 3.910156 -4.757812 3.921875 -4.875 C 3.941406 -5 3.945312 -5.125 3.9375 -5.25 C 3.90625 -5.382812 3.851562 -5.472656 3.78125 -5.515625 C 3.71875 -5.554688 3.628906 -5.578125 3.515625 -5.578125 C 3.035156 -5.578125 2.664062 -5.367188 2.40625 -4.953125 C 2.144531 -4.546875 2.015625 -3.890625 2.015625 -2.984375 C 2.015625 -2.203125 2.160156 -1.601562 2.453125 -1.1875 C 2.742188 -0.769531 3.195312 -0.5625 3.8125 -0.5625 C 4.175781 -0.5625 4.46875 -0.625 4.6875 -0.75 C 4.914062 -0.882812 5.132812 -1.085938 5.34375 -1.359375 L 5.46875 -1.265625 C 5.269531 -0.804688 4.96875 -0.453125 4.5625 -0.203125 C 4.15625 0.046875 3.675781 0.171875 3.125 0.171875 Z M 3.125 0.171875 "/></g></g></g><g fill="#ffffff" fill-opacity="1"><g transform="translate(102.86431, 21.794599)"><g><path d="M 1.9375 0.171875 C 1.488281 0.171875 1.109375 0.046875 0.796875 -0.203125 C 0.492188 -0.460938 0.34375 -0.832031 0.34375 -1.3125 C 0.34375 -1.6875 0.523438 -2.023438 0.890625 -2.328125 C 1.265625 -2.640625 1.851562 -2.867188 2.65625 -3.015625 C 2.78125 -3.046875 2.921875 -3.070312 3.078125 -3.09375 C 3.234375 -3.125 3.398438 -3.15625 3.578125 -3.1875 L 3.578125 -4.109375 C 3.578125 -4.640625 3.507812 -5.007812 3.375 -5.21875 C 3.25 -5.4375 3.050781 -5.546875 2.78125 -5.546875 C 2.59375 -5.546875 2.441406 -5.484375 2.328125 -5.359375 C 2.222656 -5.242188 2.15625 -5.035156 2.125 -4.734375 L 2.09375 -4.609375 C 2.082031 -4.273438 2.003906 -4.03125 1.859375 -3.875 C 1.710938 -3.71875 1.53125 -3.640625 1.3125 -3.640625 C 1.101562 -3.640625 0.929688 -3.703125 0.796875 -3.828125 C 0.671875 -3.953125 0.609375 -4.117188 0.609375 -4.328125 C 0.609375 -4.648438 0.71875 -4.921875 0.9375 -5.140625 C 1.15625 -5.359375 1.445312 -5.519531 1.8125 -5.625 C 2.1875 -5.738281 2.585938 -5.796875 3.015625 -5.796875 C 3.703125 -5.796875 4.234375 -5.625 4.609375 -5.28125 C 4.992188 -4.945312 5.1875 -4.394531 5.1875 -3.625 L 5.1875 -1.046875 C 5.1875 -0.703125 5.347656 -0.53125 5.671875 -0.53125 L 5.921875 -0.53125 L 6.03125 -0.4375 C 5.882812 -0.25 5.722656 -0.101562 5.546875 0 C 5.367188 0.101562 5.125 0.15625 4.8125 0.15625 C 4.46875 0.15625 4.195312 0.078125 4 -0.078125 C 3.800781 -0.242188 3.671875 -0.457031 3.609375 -0.71875 C 3.367188 -0.46875 3.125 -0.253906 2.875 -0.078125 C 2.632812 0.0859375 2.320312 0.171875 1.9375 0.171875 Z M 2.65625 -0.53125 C 2.8125 -0.53125 2.957031 -0.566406 3.09375 -0.640625 C 3.226562 -0.722656 3.390625 -0.835938 3.578125 -0.984375 L 3.578125 -2.953125 C 3.492188 -2.929688 3.410156 -2.914062 3.328125 -2.90625 C 3.253906 -2.894531 3.164062 -2.878906 3.0625 -2.859375 C 2.707031 -2.765625 2.421875 -2.601562 2.203125 -2.375 C 1.992188 -2.15625 1.890625 -1.863281 1.890625 -1.5 C 1.890625 -1.175781 1.960938 -0.929688 2.109375 -0.765625 C 2.253906 -0.609375 2.4375 -0.53125 2.65625 -0.53125 Z M 2.65625 -0.53125 "/></g></g></g><g fill="#ffffff" fill-opacity="1"><g transform="translate(108.906371, 21.794599)"><g><path d="M 2.25 0.171875 C 1.875 0.171875 1.53125 0.125 1.21875 0.03125 C 0.914062 -0.0507812 0.640625 -0.160156 0.390625 -0.296875 L 0.390625 -1.6875 L 0.515625 -1.6875 L 0.90625 -0.984375 C 1.082031 -0.671875 1.269531 -0.4375 1.46875 -0.28125 C 1.675781 -0.132812 1.941406 -0.0625 2.265625 -0.0625 C 2.640625 -0.0625 2.941406 -0.144531 3.171875 -0.3125 C 3.398438 -0.476562 3.515625 -0.703125 3.515625 -0.984375 C 3.515625 -1.234375 3.429688 -1.441406 3.265625 -1.609375 C 3.097656 -1.773438 2.796875 -1.921875 2.359375 -2.046875 L 1.875 -2.203125 C 1.394531 -2.347656 1.019531 -2.566406 0.75 -2.859375 C 0.476562 -3.148438 0.34375 -3.507812 0.34375 -3.9375 C 0.34375 -4.457031 0.539062 -4.894531 0.9375 -5.25 C 1.34375 -5.613281 1.925781 -5.796875 2.6875 -5.796875 C 2.988281 -5.796875 3.269531 -5.757812 3.53125 -5.6875 C 3.800781 -5.625 4.0625 -5.523438 4.3125 -5.390625 L 4.25 -4.125 L 4.125 -4.125 L 3.71875 -4.859375 C 3.570312 -5.109375 3.425781 -5.285156 3.28125 -5.390625 C 3.132812 -5.503906 2.921875 -5.5625 2.640625 -5.5625 C 2.367188 -5.5625 2.117188 -5.484375 1.890625 -5.328125 C 1.660156 -5.179688 1.546875 -4.972656 1.546875 -4.703125 C 1.546875 -4.441406 1.644531 -4.234375 1.84375 -4.078125 C 2.039062 -3.921875 2.332031 -3.773438 2.71875 -3.640625 L 3.25 -3.484375 C 3.800781 -3.316406 4.195312 -3.082031 4.4375 -2.78125 C 4.6875 -2.476562 4.8125 -2.117188 4.8125 -1.703125 C 4.8125 -1.140625 4.585938 -0.6875 4.140625 -0.34375 C 3.691406 0 3.0625 0.171875 2.25 0.171875 Z M 2.25 0.171875 "/></g></g></g><g clip-path="url(#621fc6b32a)"><g fill="#ffffff" fill-opacity="1"><g transform="translate(113.991965, 21.794599)"><g><path d="M 2.453125 0.171875 C 1.953125 0.171875 1.5625 0.046875 1.28125 -0.203125 C 1.007812 -0.453125 0.875 -0.847656 0.875 -1.390625 L 0.875 -5.375 L 0.0625 -5.375 L 0.0625 -5.5 L 0.34375 -5.546875 C 0.59375 -5.597656 0.800781 -5.671875 0.96875 -5.765625 C 1.144531 -5.867188 1.320312 -6.007812 1.5 -6.1875 L 2.453125 -7.25 L 2.5625 -7.25 L 2.53125 -5.609375 L 3.84375 -5.609375 L 3.84375 -5.375 L 2.515625 -5.375 L 2.515625 -1.171875 C 2.515625 -0.898438 2.578125 -0.691406 2.703125 -0.546875 C 2.828125 -0.410156 2.976562 -0.34375 3.15625 -0.34375 C 3.320312 -0.34375 3.46875 -0.382812 3.59375 -0.46875 C 3.71875 -0.550781 3.84375 -0.664062 3.96875 -0.8125 L 4.078125 -0.6875 C 3.929688 -0.425781 3.71875 -0.21875 3.4375 -0.0625 C 3.164062 0.09375 2.835938 0.171875 2.453125 0.171875 Z M 2.453125 0.171875 "/></g></g></g></g></svg>